<?xml version="1.0" encoding="utf-8" standalone="no"?>
<!DOCTYPE svg PUBLIC "-//W3C//DTD SVG 1.1//EN"
  "http://www.w3.org/Graphics/SVG/1.1/DTD/svg11.dtd">
<svg xmlns:xlink="http://www.w3.org/1999/xlink" width="255.11811pt" height="198.425197pt" viewBox="0 0 255.11811 198.425197" xmlns="http://www.w3.org/2000/svg" version="1.1">
 <metadata>
  <rdf:RDF xmlns:dc="http://purl.org/dc/elements/1.1/" xmlns:cc="http://creativecommons.org/ns#" xmlns:rdf="http://www.w3.org/1999/02/22-rdf-syntax-ns#">
   <cc:Work>
    <dc:type rdf:resource="http://purl.org/dc/dcmitype/StillImage"/>
    <dc:date>2024-01-06T09:57:23.664257</dc:date>
    <dc:format>image/svg+xml</dc:format>
    <dc:creator>
     <cc:Agent>
      <dc:title>Matplotlib v3.7.1, https://matplotlib.org/</dc:title>
     </cc:Agent>
    </dc:creator>
   </cc:Work>
  </rdf:RDF>
 </metadata>
 <defs>
  <style type="text/css">*{stroke-linejoin: round; stroke-linecap: butt}</style>
 </defs>
 <g id="figure_1">
  <g id="patch_1">
   <path d="M 0 198.425197 
L 255.11811 198.425197 
L 255.11811 0 
L 0 0 
z
" style="fill: #ffffff"/>
  </g>
  <g id="axes_1">
   <g id="patch_2">
    <path d="M 51.023622 158.740157 
L 242.362205 158.740157 
L 242.362205 9.92126 
L 51.023622 9.92126 
z
" style="fill: #ffffff"/>
   </g>
   <g id="patch_3">
    <path d="M 51.023622 158.740157 
L 51.023622 9.92126 
" style="fill: none; stroke: #000000; stroke-width: 0.5; stroke-linejoin: miter; stroke-linecap: square"/>
   </g>
   <g id="patch_4">
    <path d="M 242.362205 158.740157 
L 242.362205 9.92126 
" style="fill: none; stroke: #000000; stroke-width: 0.5; stroke-linejoin: miter; stroke-linecap: square"/>
   </g>
   <g id="patch_5">
    <path d="M 51.023622 158.740157 
L 242.362205 158.740157 
" style="fill: none; stroke: #000000; stroke-width: 0.5; stroke-linejoin: miter; stroke-linecap: square"/>
   </g>
   <g id="patch_6">
    <path d="M 51.023622 9.92126 
L 242.362205 9.92126 
" style="fill: none; stroke: #000000; stroke-width: 0.5; stroke-linejoin: miter; stroke-linecap: square"/>
   </g>
   <g id="matplotlib.axis_1">
    <g id="xtick_1">
     <g id="line2d_1">
      <path d="M 51.023622 158.740157 
L 51.023622 9.92126 
" clip-path="url(#pe46d5ad436)" style="fill: none; stroke-dasharray: 0.21,2.7; stroke-dashoffset: 0; stroke: #4c4c4c; stroke-width: 0.3"/>
     </g>
     <g id="line2d_2">
      <defs>
       <path id="m5b50940dd6" d="M 0 0 
L 0 -1.75 
" style="stroke: #000000; stroke-width: 0.5"/>
      </defs>
      <g>
       <use xlink:href="#m5b50940dd6" x="51.023622" y="158.740157" style="stroke: #000000; stroke-width: 0.5"/>
      </g>
     </g>
     <g id="text_1">
      <!-- 0.0 -->
      <g transform="translate(45.464247 168.072657) scale(0.08 -0.08)">
       <defs>
        <path id="TeXGyreHeros-Regular-30" d="M 3245 2182 
Q 3245 1069 2864 486 
Q 2483 -96 1760 -96 
Q 1030 -96 652 489 
Q 275 1075 275 2220 
Q 275 3366 649 3952 
Q 1024 4538 1760 4538 
Q 3245 4538 3245 2182 
z
M 2669 2234 
Q 2669 4038 1760 4038 
Q 851 4038 851 2214 
Q 851 371 1747 371 
Q 2221 371 2445 822 
Q 2669 1274 2669 2234 
z
" transform="scale(0.015625)"/>
        <path id="TeXGyreHeros-Regular-2e" d="M 1222 0 
L 557 0 
L 557 666 
L 1222 666 
L 1222 0 
z
" transform="scale(0.015625)"/>
       </defs>
       <use xlink:href="#TeXGyreHeros-Regular-30"/>
       <use xlink:href="#TeXGyreHeros-Regular-2e" x="55.599991"/>
       <use xlink:href="#TeXGyreHeros-Regular-30" x="83.399979"/>
      </g>
     </g>
    </g>
    <g id="xtick_2">
     <g id="line2d_3">
      <path d="M 89.291339 158.740157 
L 89.291339 9.92126 
" clip-path="url(#pe46d5ad436)" style="fill: none; stroke-dasharray: 0.21,2.7; stroke-dashoffset: 0; stroke: #4c4c4c; stroke-width: 0.3"/>
     </g>
     <g id="line2d_4">
      <g>
       <use xlink:href="#m5b50940dd6" x="89.291339" y="158.740157" style="stroke: #000000; stroke-width: 0.5"/>
      </g>
     </g>
     <g id="text_2">
      <!-- 0.2 -->
      <g transform="translate(83.731964 168.072657) scale(0.08 -0.08)">
       <defs>
        <path id="TeXGyreHeros-Regular-32" d="M 3270 3206 
Q 3270 2349 2310 1837 
L 1670 1491 
Q 1254 1248 1075 1043 
Q 896 838 851 557 
L 3238 557 
L 3238 0 
L 218 0 
Q 256 749 518 1155 
Q 781 1562 1491 1965 
L 2080 2298 
Q 2694 2650 2694 3194 
Q 2694 3558 2438 3801 
Q 2182 4045 1798 4045 
Q 1370 4045 1142 3785 
Q 915 3526 883 2963 
L 320 2963 
Q 365 4538 1818 4538 
Q 2458 4538 2864 4160 
Q 3270 3782 3270 3206 
z
" transform="scale(0.015625)"/>
       </defs>
       <use xlink:href="#TeXGyreHeros-Regular-30"/>
       <use xlink:href="#TeXGyreHeros-Regular-2e" x="55.599991"/>
       <use xlink:href="#TeXGyreHeros-Regular-32" x="83.399979"/>
      </g>
     </g>
    </g>
    <g id="xtick_3">
     <g id="line2d_5">
      <path d="M 127.559055 158.740157 
L 127.559055 9.92126 
" clip-path="url(#pe46d5ad436)" style="fill: none; stroke-dasharray: 0.21,2.7; stroke-dashoffset: 0; stroke: #4c4c4c; stroke-width: 0.3"/>
     </g>
     <g id="line2d_6">
      <g>
       <use xlink:href="#m5b50940dd6" x="127.559055" y="158.740157" style="stroke: #000000; stroke-width: 0.5"/>
      </g>
     </g>
     <g id="text_3">
      <!-- 0.4 -->
      <g transform="translate(121.99968 168.072657) scale(0.08 -0.08)">
       <defs>
        <path id="TeXGyreHeros-Regular-34" d="M 3328 1088 
L 2656 1088 
L 2656 0 
L 2093 0 
L 2093 1088 
L 179 1088 
L 179 1683 
L 2240 4538 
L 2656 4538 
L 2656 1594 
L 3328 1594 
L 3328 1088 
z
M 2093 1594 
L 2093 3578 
L 672 1594 
L 2093 1594 
z
" transform="scale(0.015625)"/>
       </defs>
       <use xlink:href="#TeXGyreHeros-Regular-30"/>
       <use xlink:href="#TeXGyreHeros-Regular-2e" x="55.599991"/>
       <use xlink:href="#TeXGyreHeros-Regular-34" x="83.399979"/>
      </g>
     </g>
    </g>
    <g id="xtick_4">
     <g id="line2d_7">
      <path d="M 165.826772 158.740157 
L 165.826772 9.92126 
" clip-path="url(#pe46d5ad436)" style="fill: none; stroke-dasharray: 0.21,2.7; stroke-dashoffset: 0; stroke: #4c4c4c; stroke-width: 0.3"/>
     </g>
     <g id="line2d_8">
      <g>
       <use xlink:href="#m5b50940dd6" x="165.826772" y="158.740157" style="stroke: #000000; stroke-width: 0.5"/>
      </g>
     </g>
     <g id="text_4">
      <!-- 0.6 -->
      <g transform="translate(160.267397 168.072657) scale(0.08 -0.08)">
       <defs>
        <path id="TeXGyreHeros-Regular-36" d="M 3283 1408 
Q 3283 742 2867 323 
Q 2451 -96 1798 -96 
Q 275 -96 275 2067 
Q 275 3258 694 3898 
Q 1114 4538 1901 4538 
Q 2419 4538 2761 4224 
Q 3104 3910 3187 3354 
L 2624 3354 
Q 2554 3680 2355 3859 
Q 2157 4038 1862 4038 
Q 1376 4038 1117 3593 
Q 858 3149 851 2317 
Q 1222 2822 1894 2822 
Q 2509 2822 2896 2432 
Q 3283 2042 3283 1408 
z
M 2707 1363 
Q 2707 1818 2470 2070 
Q 2234 2323 1824 2323 
Q 1402 2323 1142 2070 
Q 883 1818 883 1395 
Q 883 960 1145 681 
Q 1408 403 1805 403 
Q 2195 403 2451 672 
Q 2707 941 2707 1363 
z
" transform="scale(0.015625)"/>
       </defs>
       <use xlink:href="#TeXGyreHeros-Regular-30"/>
       <use xlink:href="#TeXGyreHeros-Regular-2e" x="55.599991"/>
       <use xlink:href="#TeXGyreHeros-Regular-36" x="83.399979"/>
      </g>
     </g>
    </g>
    <g id="xtick_5">
     <g id="line2d_9">
      <path d="M 204.094488 158.740157 
L 204.094488 9.92126 
" clip-path="url(#pe46d5ad436)" style="fill: none; stroke-dasharray: 0.21,2.7; stroke-dashoffset: 0; stroke: #4c4c4c; stroke-width: 0.3"/>
     </g>
     <g id="line2d_10">
      <g>
       <use xlink:href="#m5b50940dd6" x="204.094488" y="158.740157" style="stroke: #000000; stroke-width: 0.5"/>
      </g>
     </g>
     <g id="text_5">
      <!-- 0.8 -->
      <g transform="translate(198.535113 168.072657) scale(0.08 -0.08)">
       <defs>
        <path id="TeXGyreHeros-Regular-38" d="M 3283 1280 
Q 3283 666 2857 285 
Q 2432 -96 1760 -96 
Q 1082 -96 659 285 
Q 237 666 237 1286 
Q 237 2016 1011 2387 
Q 666 2605 531 2809 
Q 397 3014 397 3328 
Q 397 3859 777 4198 
Q 1158 4538 1760 4538 
Q 2362 4538 2742 4198 
Q 3123 3859 3123 3328 
Q 3123 3008 2988 2803 
Q 2854 2598 2502 2387 
Q 3283 2016 3283 1280 
z
M 2547 3315 
Q 2547 3648 2332 3843 
Q 2118 4038 1760 4038 
Q 1402 4038 1187 3843 
Q 973 3648 973 3322 
Q 973 3002 1187 2806 
Q 1402 2611 1760 2611 
Q 2112 2611 2329 2803 
Q 2547 2995 2547 3315 
z
M 2707 1274 
Q 2707 1670 2448 1904 
Q 2189 2138 1760 2138 
Q 1331 2138 1072 1904 
Q 813 1670 813 1273 
Q 813 877 1072 640 
Q 1331 403 1747 403 
Q 2182 403 2444 636 
Q 2707 870 2707 1274 
z
" transform="scale(0.015625)"/>
       </defs>
       <use xlink:href="#TeXGyreHeros-Regular-30"/>
       <use xlink:href="#TeXGyreHeros-Regular-2e" x="55.599991"/>
       <use xlink:href="#TeXGyreHeros-Regular-38" x="83.399979"/>
      </g>
     </g>
    </g>
    <g id="xtick_6">
     <g id="line2d_11">
      <path d="M 242.362205 158.740157 
L 242.362205 9.92126 
" clip-path="url(#pe46d5ad436)" style="fill: none; stroke-dasharray: 0.21,2.7; stroke-dashoffset: 0; stroke: #4c4c4c; stroke-width: 0.3"/>
     </g>
     <g id="line2d_12">
      <g>
       <use xlink:href="#m5b50940dd6" x="242.362205" y="158.740157" style="stroke: #000000; stroke-width: 0.5"/>
      </g>
     </g>
     <g id="text_6">
      <!-- 1.0 -->
      <g transform="translate(236.80283 168.072657) scale(0.08 -0.08)">
       <defs>
        <path id="TeXGyreHeros-Regular-31" d="M 2221 0 
L 1658 0 
L 1658 3232 
L 653 3232 
L 653 3635 
Q 1306 3718 1504 3865 
Q 1702 4013 1850 4538 
L 2221 4538 
L 2221 0 
z
" transform="scale(0.015625)"/>
       </defs>
       <use xlink:href="#TeXGyreHeros-Regular-31"/>
       <use xlink:href="#TeXGyreHeros-Regular-2e" x="55.599991"/>
       <use xlink:href="#TeXGyreHeros-Regular-30" x="83.399979"/>
      </g>
     </g>
    </g>
    <g id="xtick_7">
     <g id="line2d_13">
      <defs>
       <path id="mfcc3c9a99c" d="M 0 0 
L 0 -1 
" style="stroke: #000000; stroke-width: 0.25"/>
      </defs>
      <g>
       <use xlink:href="#mfcc3c9a99c" x="60.590551" y="158.740157" style="stroke: #000000; stroke-width: 0.25"/>
      </g>
     </g>
    </g>
    <g id="xtick_8">
     <g id="line2d_14">
      <g>
       <use xlink:href="#mfcc3c9a99c" x="70.15748" y="158.740157" style="stroke: #000000; stroke-width: 0.25"/>
      </g>
     </g>
    </g>
    <g id="xtick_9">
     <g id="line2d_15">
      <g>
       <use xlink:href="#mfcc3c9a99c" x="79.724409" y="158.740157" style="stroke: #000000; stroke-width: 0.25"/>
      </g>
     </g>
    </g>
    <g id="xtick_10">
     <g id="line2d_16">
      <g>
       <use xlink:href="#mfcc3c9a99c" x="98.858268" y="158.740157" style="stroke: #000000; stroke-width: 0.25"/>
      </g>
     </g>
    </g>
    <g id="xtick_11">
     <g id="line2d_17">
      <g>
       <use xlink:href="#mfcc3c9a99c" x="108.425197" y="158.740157" style="stroke: #000000; stroke-width: 0.25"/>
      </g>
     </g>
    </g>
    <g id="xtick_12">
     <g id="line2d_18">
      <g>
       <use xlink:href="#mfcc3c9a99c" x="117.992126" y="158.740157" style="stroke: #000000; stroke-width: 0.25"/>
      </g>
     </g>
    </g>
    <g id="xtick_13">
     <g id="line2d_19">
      <g>
       <use xlink:href="#mfcc3c9a99c" x="137.125984" y="158.740157" style="stroke: #000000; stroke-width: 0.25"/>
      </g>
     </g>
    </g>
    <g id="xtick_14">
     <g id="line2d_20">
      <g>
       <use xlink:href="#mfcc3c9a99c" x="146.692913" y="158.740157" style="stroke: #000000; stroke-width: 0.25"/>
      </g>
     </g>
    </g>
    <g id="xtick_15">
     <g id="line2d_21">
      <g>
       <use xlink:href="#mfcc3c9a99c" x="156.259843" y="158.740157" style="stroke: #000000; stroke-width: 0.25"/>
      </g>
     </g>
    </g>
    <g id="xtick_16">
     <g id="line2d_22">
      <g>
       <use xlink:href="#mfcc3c9a99c" x="175.393701" y="158.740157" style="stroke: #000000; stroke-width: 0.25"/>
      </g>
     </g>
    </g>
    <g id="xtick_17">
     <g id="line2d_23">
      <g>
       <use xlink:href="#mfcc3c9a99c" x="184.96063" y="158.740157" style="stroke: #000000; stroke-width: 0.25"/>
      </g>
     </g>
    </g>
    <g id="xtick_18">
     <g id="line2d_24">
      <g>
       <use xlink:href="#mfcc3c9a99c" x="194.527559" y="158.740157" style="stroke: #000000; stroke-width: 0.25"/>
      </g>
     </g>
    </g>
    <g id="xtick_19">
     <g id="line2d_25">
      <g>
       <use xlink:href="#mfcc3c9a99c" x="213.661417" y="158.740157" style="stroke: #000000; stroke-width: 0.25"/>
      </g>
     </g>
    </g>
    <g id="xtick_20">
     <g id="line2d_26">
      <g>
       <use xlink:href="#mfcc3c9a99c" x="223.228346" y="158.740157" style="stroke: #000000; stroke-width: 0.25"/>
      </g>
     </g>
    </g>
    <g id="xtick_21">
     <g id="line2d_27">
      <g>
       <use xlink:href="#mfcc3c9a99c" x="232.795276" y="158.740157" style="stroke: #000000; stroke-width: 0.25"/>
      </g>
     </g>
    </g>
   </g>
   <g id="matplotlib.axis_2">
    <g id="ytick_1">
     <g id="line2d_28">
      <path d="M 51.023622 158.740157 
L 242.362205 158.740157 
" clip-path="url(#pe46d5ad436)" style="fill: none; stroke-dasharray: 0.21,2.7; stroke-dashoffset: 0; stroke: #4c4c4c; stroke-width: 0.3"/>
     </g>
     <g id="line2d_29">
      <defs>
       <path id="m7bdd5f755c" d="M 0 0 
L 1.75 0 
" style="stroke: #000000; stroke-width: 0.5"/>
      </defs>
      <g>
       <use xlink:href="#m7bdd5f755c" x="51.023622" y="158.740157" style="stroke: #000000; stroke-width: 0.5"/>
      </g>
     </g>
     <g id="text_7">
      <!-- 0.0 -->
      <g transform="translate(36.404872 161.656407) scale(0.08 -0.08)">
       <use xlink:href="#TeXGyreHeros-Regular-30"/>
       <use xlink:href="#TeXGyreHeros-Regular-2e" x="55.599991"/>
       <use xlink:href="#TeXGyreHeros-Regular-30" x="83.399979"/>
      </g>
     </g>
    </g>
    <g id="ytick_2">
     <g id="line2d_30">
      <path d="M 51.023622 128.976378 
L 242.362205 128.976378 
" clip-path="url(#pe46d5ad436)" style="fill: none; stroke-dasharray: 0.21,2.7; stroke-dashoffset: 0; stroke: #4c4c4c; stroke-width: 0.3"/>
     </g>
     <g id="line2d_31">
      <g>
       <use xlink:href="#m7bdd5f755c" x="51.023622" y="128.976378" style="stroke: #000000; stroke-width: 0.5"/>
      </g>
     </g>
     <g id="text_8">
      <!-- 0.2 -->
      <g transform="translate(36.404872 131.892628) scale(0.08 -0.08)">
       <use xlink:href="#TeXGyreHeros-Regular-30"/>
       <use xlink:href="#TeXGyreHeros-Regular-2e" x="55.599991"/>
       <use xlink:href="#TeXGyreHeros-Regular-32" x="83.399979"/>
      </g>
     </g>
    </g>
    <g id="ytick_3">
     <g id="line2d_32">
      <path d="M 51.023622 99.212598 
L 242.362205 99.212598 
" clip-path="url(#pe46d5ad436)" style="fill: none; stroke-dasharray: 0.21,2.7; stroke-dashoffset: 0; stroke: #4c4c4c; stroke-width: 0.3"/>
     </g>
     <g id="line2d_33">
      <g>
       <use xlink:href="#m7bdd5f755c" x="51.023622" y="99.212598" style="stroke: #000000; stroke-width: 0.5"/>
      </g>
     </g>
     <g id="text_9">
      <!-- 0.4 -->
      <g transform="translate(36.404872 102.128848) scale(0.08 -0.08)">
       <use xlink:href="#TeXGyreHeros-Regular-30"/>
       <use xlink:href="#TeXGyreHeros-Regular-2e" x="55.599991"/>
       <use xlink:href="#TeXGyreHeros-Regular-34" x="83.399979"/>
      </g>
     </g>
    </g>
    <g id="ytick_4">
     <g id="line2d_34">
      <path d="M 51.023622 69.448819 
L 242.362205 69.448819 
" clip-path="url(#pe46d5ad436)" style="fill: none; stroke-dasharray: 0.21,2.7; stroke-dashoffset: 0; stroke: #4c4c4c; stroke-width: 0.3"/>
     </g>
     <g id="line2d_35">
      <g>
       <use xlink:href="#m7bdd5f755c" x="51.023622" y="69.448819" style="stroke: #000000; stroke-width: 0.5"/>
      </g>
     </g>
     <g id="text_10">
      <!-- 0.6 -->
      <g transform="translate(36.404872 72.365069) scale(0.08 -0.08)">
       <use xlink:href="#TeXGyreHeros-Regular-30"/>
       <use xlink:href="#TeXGyreHeros-Regular-2e" x="55.599991"/>
       <use xlink:href="#TeXGyreHeros-Regular-36" x="83.399979"/>
      </g>
     </g>
    </g>
    <g id="ytick_5">
     <g id="line2d_36">
      <path d="M 51.023622 39.685039 
L 242.362205 39.685039 
" clip-path="url(#pe46d5ad436)" style="fill: none; stroke-dasharray: 0.21,2.7; stroke-dashoffset: 0; stroke: #4c4c4c; stroke-width: 0.3"/>
     </g>
     <g id="line2d_37">
      <g>
       <use xlink:href="#m7bdd5f755c" x="51.023622" y="39.685039" style="stroke: #000000; stroke-width: 0.5"/>
      </g>
     </g>
     <g id="text_11">
      <!-- 0.8 -->
      <g transform="translate(36.404872 42.601289) scale(0.08 -0.08)">
       <use xlink:href="#TeXGyreHeros-Regular-30"/>
       <use xlink:href="#TeXGyreHeros-Regular-2e" x="55.599991"/>
       <use xlink:href="#TeXGyreHeros-Regular-38" x="83.399979"/>
      </g>
     </g>
    </g>
    <g id="ytick_6">
     <g id="line2d_38">
      <path d="M 51.023622 9.92126 
L 242.362205 9.92126 
" clip-path="url(#pe46d5ad436)" style="fill: none; stroke-dasharray: 0.21,2.7; stroke-dashoffset: 0; stroke: #4c4c4c; stroke-width: 0.3"/>
     </g>
     <g id="line2d_39">
      <g>
       <use xlink:href="#m7bdd5f755c" x="51.023622" y="9.92126" style="stroke: #000000; stroke-width: 0.5"/>
      </g>
     </g>
     <g id="text_12">
      <!-- 1.0 -->
      <g transform="translate(36.404872 12.83751) scale(0.08 -0.08)">
       <use xlink:href="#TeXGyreHeros-Regular-31"/>
       <use xlink:href="#TeXGyreHeros-Regular-2e" x="55.599991"/>
       <use xlink:href="#TeXGyreHeros-Regular-30" x="83.399979"/>
      </g>
     </g>
    </g>
    <g id="ytick_7">
     <g id="line2d_40">
      <defs>
       <path id="m61f59f8545" d="M 0 0 
L 1 0 
" style="stroke: #000000; stroke-width: 0.25"/>
      </defs>
      <g>
       <use xlink:href="#m61f59f8545" x="51.023622" y="151.299213" style="stroke: #000000; stroke-width: 0.25"/>
      </g>
     </g>
    </g>
    <g id="ytick_8">
     <g id="line2d_41">
      <g>
       <use xlink:href="#m61f59f8545" x="51.023622" y="143.858268" style="stroke: #000000; stroke-width: 0.25"/>
      </g>
     </g>
    </g>
    <g id="ytick_9">
     <g id="line2d_42">
      <g>
       <use xlink:href="#m61f59f8545" x="51.023622" y="136.417323" style="stroke: #000000; stroke-width: 0.25"/>
      </g>
     </g>
    </g>
    <g id="ytick_10">
     <g id="line2d_43">
      <g>
       <use xlink:href="#m61f59f8545" x="51.023622" y="121.535433" style="stroke: #000000; stroke-width: 0.25"/>
      </g>
     </g>
    </g>
    <g id="ytick_11">
     <g id="line2d_44">
      <g>
       <use xlink:href="#m61f59f8545" x="51.023622" y="114.094488" style="stroke: #000000; stroke-width: 0.25"/>
      </g>
     </g>
    </g>
    <g id="ytick_12">
     <g id="line2d_45">
      <g>
       <use xlink:href="#m61f59f8545" x="51.023622" y="106.653543" style="stroke: #000000; stroke-width: 0.25"/>
      </g>
     </g>
    </g>
    <g id="ytick_13">
     <g id="line2d_46">
      <g>
       <use xlink:href="#m61f59f8545" x="51.023622" y="91.771654" style="stroke: #000000; stroke-width: 0.25"/>
      </g>
     </g>
    </g>
    <g id="ytick_14">
     <g id="line2d_47">
      <g>
       <use xlink:href="#m61f59f8545" x="51.023622" y="84.330709" style="stroke: #000000; stroke-width: 0.25"/>
      </g>
     </g>
    </g>
    <g id="ytick_15">
     <g id="line2d_48">
      <g>
       <use xlink:href="#m61f59f8545" x="51.023622" y="76.889764" style="stroke: #000000; stroke-width: 0.25"/>
      </g>
     </g>
    </g>
    <g id="ytick_16">
     <g id="line2d_49">
      <g>
       <use xlink:href="#m61f59f8545" x="51.023622" y="62.007874" style="stroke: #000000; stroke-width: 0.25"/>
      </g>
     </g>
    </g>
    <g id="ytick_17">
     <g id="line2d_50">
      <g>
       <use xlink:href="#m61f59f8545" x="51.023622" y="54.566929" style="stroke: #000000; stroke-width: 0.25"/>
      </g>
     </g>
    </g>
    <g id="ytick_18">
     <g id="line2d_51">
      <g>
       <use xlink:href="#m61f59f8545" x="51.023622" y="47.125984" style="stroke: #000000; stroke-width: 0.25"/>
      </g>
     </g>
    </g>
    <g id="ytick_19">
     <g id="line2d_52">
      <g>
       <use xlink:href="#m61f59f8545" x="51.023622" y="32.244094" style="stroke: #000000; stroke-width: 0.25"/>
      </g>
     </g>
    </g>
    <g id="ytick_20">
     <g id="line2d_53">
      <g>
       <use xlink:href="#m61f59f8545" x="51.023622" y="24.80315" style="stroke: #000000; stroke-width: 0.25"/>
      </g>
     </g>
    </g>
    <g id="ytick_21">
     <g id="line2d_54">
      <g>
       <use xlink:href="#m61f59f8545" x="51.023622" y="17.362205" style="stroke: #000000; stroke-width: 0.25"/>
      </g>
     </g>
    </g>
   </g>
  </g>
 </g>
 <defs>
  <clipPath id="pe46d5ad436">
   <rect x="51.023622" y="9.92126" width="191.338583" height="148.818898"/>
  </clipPath>
 </defs>
</svg>
